{
    "asset": {
        "generator": "FBX2glTF v0.9.7",
        "version": "2.0"
    },
    "scene": 0,
    "buffers": [
        {
            "byteLength": 546656,
            "uri": "buffer.bin"
        }
    ],
    "bufferViews": [
        {
            "buffer": 0,
            "byteLength": 4,
            "byteOffset": 0
        },
        {
            "buffer": 0,
            "byteLength": 4,
            "byteOffset": 4
        },
        {
            "buffer": 0,
            "byteLength": 100452,
            "byteOffset": 8,
            "target": 34963
        },
        {
            "buffer": 0,
            "byteLength": 111540,
            "byteOffset": 100460,
            "target": 34962
        },
        {
            "buffer": 0,
            "byteLength": 111540,
            "byteOffset": 212000,
            "target": 34962
        },
        {
            "buffer": 0,
            "byteLength": 74360,
            "byteOffset": 323540,
            "target": 34962
        },
        {
            "buffer": 0,
            "byteLength": 111540,
            "byteOffset": 397900,
            "target": 34962
        },
        {
            "buffer": 0,
            "byteLength": 4560,
            "byteOffset": 509440,
            "target": 34963
        },
        {
            "buffer": 0,
            "byteLength": 5268,
            "byteOffset": 514000,
            "target": 34962
        },
        {
            "buffer": 0,
            "byteLength": 5268,
            "byteOffset": 519268,
            "target": 34962
        },
        {
            "buffer": 0,
            "byteLength": 3512,
            "byteOffset": 524536,
            "target": 34962
        },
        {
            "buffer": 0,
            "byteLength": 4560,
            "byteOffset": 528048,
            "target": 34963
        },
        {
            "buffer": 0,
            "byteLength": 5268,
            "byteOffset": 532608,
            "target": 34962
        },
        {
            "buffer": 0,
            "byteLength": 5268,
            "byteOffset": 537876,
            "target": 34962
        },
        {
            "buffer": 0,
            "byteLength": 3512,
            "byteOffset": 543144,
            "target": 34962
        }
    ],
    "scenes": [
        {
            "name": "Root Scene",
            "nodes": [
                0
            ]
        }
    ],
    "accessors": [
        {
            "componentType": 5126,
            "type": "SCALAR",
            "count": 1,
            "bufferView": 0,
            "byteOffset": 0,
            "min": [
                0.0
            ],
            "max": [
                0.0
            ]
        },
        {
            "componentType": 5126,
            "type": "SCALAR",
            "count": 1,
            "bufferView": 1,
            "byteOffset": 0
        },
        {
            "componentType": 5123,
            "type": "SCALAR",
            "count": 50226,
            "bufferView": 2,
            "byteOffset": 0
        },
        {
            "componentType": 5126,
            "type": "VEC3",
            "count": 9295,
            "bufferView": 3,
            "byteOffset": 0,
            "min": [
                -0.596572697162628,
                0.0687932297587395,
                -0.13769619166851
            ],
            "max": [
                0.596588551998138,
                1.74131608009338,
                0.180739402770996
            ]
        },
        {
            "componentType": 5126,
            "type": "VEC3",
            "count": 9295,
            "bufferView": 4,
            "byteOffset": 0
        },
        {
            "componentType": 5126,
            "type": "VEC2",
            "count": 9295,
            "bufferView": 5,
            "byteOffset": 0
        },
        {
            "componentType": 5126,
            "type": "VEC3",
            "count": 9295,
            "bufferView": 6,
            "byteOffset": 0,
            "min": [
                -1.08941733837128,
                -1.64874875545502,
                -0.299025177955627
            ],
            "max": [
                0.764205634593964,
                1.62541496753693,
                0.287436336278915
            ],
            "name": "blendShape1.Group2"
        },
        {
            "componentType": 5123,
            "type": "SCALAR",
            "count": 2280,
            "bufferView": 7,
            "byteOffset": 0
        },
        {
            "componentType": 5126,
            "type": "VEC3",
            "count": 439,
            "bufferView": 8,
            "byteOffset": 0,
            "min": [
                0.0229729078710079,
                1.50708246231079,
                0.0649764835834503
            ],
            "max": [
                0.0904088169336319,
                1.57451844215393,
                0.132412388920784
            ]
        },
        {
            "componentType": 5126,
            "type": "VEC3",
            "count": 439,
            "bufferView": 9,
            "byteOffset": 0
        },
        {
            "componentType": 5126,
            "type": "VEC2",
            "count": 439,
            "bufferView": 10,
            "byteOffset": 0
        },
        {
            "componentType": 5123,
            "type": "SCALAR",
            "count": 2280,
            "bufferView": 11,
            "byteOffset": 0
        },
        {
            "componentType": 5126,
            "type": "VEC3",
            "count": 439,
            "bufferView": 12,
            "byteOffset": 0,
            "min": [
                -0.0904088169336319,
                1.50708246231079,
                0.0649764835834503
            ],
            "max": [
                -0.0229729078710079,
                1.57451844215393,
                0.132412388920784
            ]
        },
        {
            "componentType": 5126,
            "type": "VEC3",
            "count": 439,
            "bufferView": 13,
            "byteOffset": 0
        },
        {
            "componentType": 5126,
            "type": "VEC2",
            "count": 439,
            "bufferView": 14,
            "byteOffset": 0
        }
    ],
    "images": [
        {
            "name": "file1",
            "uri": "data:image/png;base64,"
        }
    ],
    "samplers": [
        {}
    ],
    "textures": [
        {
            "name": "file1",
            "sampler": 0,
            "source": 0
        }
    ],
    "materials": [
        {
            "name": "blinn2",
            "alphaMode": "OPAQUE",
            "extras": {
                "fromFBX": {
                    "shadingModel": "Phong",
                    "isTruePBR": false
                }
            },
            "pbrMetallicRoughness": {
                "baseColorFactor": [
                    0.135064944624901,
                    0.135064944624901,
                    0.135064944624901,
                    1.0
                ],
                "metallicFactor": 0.400000005960464,
                "roughnessFactor": 0.69400280714035
            }
        },
        {
            "name": "blinn3",
            "alphaMode": "OPAQUE",
            "extras": {
                "fromFBX": {
                    "shadingModel": "Phong",
                    "isTruePBR": false
                }
            },
            "normalTexture": {
                "index": 0,
                "texCoord": 0
            },
            "pbrMetallicRoughness": {
                "baseColorFactor": [
                    0.135064944624901,
                    0.135064944624901,
                    0.135064944624901,
                    1.0
                ],
                "metallicFactor": 0.400000005960464,
                "roughnessFactor": 0.69400280714035
            }
        }
    ],
    "meshes": [
        {
            "name": "polySurface1",
            "primitives": [
                {
                    "material": 0,
                    "mode": 4,
                    "attributes": {
                        "NORMAL": 4,
                        "POSITION": 3,
                        "TEXCOORD_0": 5
                    },
                    "indices": 2,
                    "targets": [
                        {
                            "POSITION": 6
                        }
                    ]
                }
            ],
            "weights": [
                0.0
            ]
        },
        {
            "name": "male_eyeball_L",
            "primitives": [
                {
                    "material": 1,
                    "mode": 4,
                    "attributes": {
                        "NORMAL": 9,
                        "POSITION": 8,
                        "TEXCOORD_0": 10
                    },
                    "indices": 7
                }
            ]
        },
        {
            "name": "male_eyeball_R",
            "primitives": [
                {
                    "material": 1,
                    "mode": 4,
                    "attributes": {
                        "NORMAL": 13,
                        "POSITION": 12,
                        "TEXCOORD_0": 14
                    },
                    "indices": 11
                }
            ]
        }
    ],
    "animations": [
        {
            "name": "Take 001",
            "channels": [
                {
                    "sampler": 0,
                    "target": {
                        "node": 2,
                        "path": "weights"
                    }
                }
            ],
            "samplers": [
                {
                    "input": 0,
                    "interpolation": "LINEAR",
                    "output": 1
                }
            ]
        }
    ],
    "nodes": [
        {
            "name": "RootNode",
            "translation": [
                0.0,
                0.0,
                0.0
            ],
            "rotation": [
                0.0,
                0.0,
                0.0,
                1.0
            ],
            "scale": [
                1.0,
                1.0,
                1.0
            ],
            "children": [
                1,
                3,
                4
            ]
        },
        {
            "name": "male_low:Group2",
            "translation": [
                0.0,
                0.0,
                0.0
            ],
            "rotation": [
                0.0,
                0.0,
                0.0,
                1.0
            ],
            "scale": [
                1.0,
                1.0,
                1.0
            ],
            "children": [
                2
            ]
        },
        {
            "name": "polySurface1",
            "translation": [
                0.0,
                0.0,
                0.0
            ],
            "rotation": [
                0.0,
                0.0,
                0.0,
                1.0
            ],
            "scale": [
                1.0,
                1.0,
                1.0
            ],
            "mesh": 0
        },
        {
            "name": "male_eyeball_L",
            "translation": [
                0.0,
                0.0,
                0.0
            ],
            "rotation": [
                0.0,
                0.0,
                0.0,
                1.0
            ],
            "scale": [
                1.0,
                1.0,
                1.0
            ],
            "mesh": 1
        },
        {
            "name": "male_eyeball_R",
            "translation": [
                0.0,
                0.0,
                0.0
            ],
            "rotation": [
                0.0,
                0.0,
                0.0,
                1.0
            ],
            "scale": [
                1.0,
                1.0,
                1.0
            ],
            "mesh": 2
        }
    ]
}