{
    "asset": {
        "generator": "FBX2glTF v0.9.7",
        "version": "2.0"
    },
    "scene": 0,
    "buffers": [
        {
            "byteLength": 677012,
            "uri": "buffer.bin"
        }
    ],
    "bufferViews": [
        {
            "buffer": 0,
            "byteLength": 4,
            "byteOffset": 0
        },
        {
            "buffer": 0,
            "byteLength": 12,
            "byteOffset": 4
        },
        {
            "buffer": 0,
            "byteLength": 16,
            "byteOffset": 16
        },
        {
            "buffer": 0,
            "byteLength": 12,
            "byteOffset": 32
        },
        {
            "buffer": 0,
            "byteLength": 12,
            "byteOffset": 44
        },
        {
            "buffer": 0,
            "byteLength": 16,
            "byteOffset": 56
        },
        {
            "buffer": 0,
            "byteLength": 12,
            "byteOffset": 72
        },
        {
            "buffer": 0,
            "byteLength": 12,
            "byteOffset": 84
        },
        {
            "buffer": 0,
            "byteLength": 16,
            "byteOffset": 96
        },
        {
            "buffer": 0,
            "byteLength": 12,
            "byteOffset": 112
        },
        {
            "buffer": 0,
            "byteLength": 4,
            "byteOffset": 124
        },
        {
            "buffer": 0,
            "byteLength": 12,
            "byteOffset": 128
        },
        {
            "buffer": 0,
            "byteLength": 16,
            "byteOffset": 140
        },
        {
            "buffer": 0,
            "byteLength": 12,
            "byteOffset": 156
        },
        {
            "buffer": 0,
            "byteLength": 12,
            "byteOffset": 168
        },
        {
            "buffer": 0,
            "byteLength": 16,
            "byteOffset": 180
        },
        {
            "buffer": 0,
            "byteLength": 12,
            "byteOffset": 196
        },
        {
            "buffer": 0,
            "byteLength": 100476,
            "byteOffset": 208,
            "target": 34963
        },
        {
            "buffer": 0,
            "byteLength": 111540,
            "byteOffset": 100684,
            "target": 34962
        },
        {
            "buffer": 0,
            "byteLength": 111540,
            "byteOffset": 212224,
            "target": 34962
        },
        {
            "buffer": 0,
            "byteLength": 74360,
            "byteOffset": 323764,
            "target": 34962
        },
        {
            "buffer": 0,
            "byteLength": 18590,
            "byteOffset": 398124
        },
        {
            "buffer": 0,
            "byteLength": 111540,
            "byteOffset": 416716
        },
        {
            "buffer": 0,
            "byteLength": 111540,
            "byteOffset": 528256
        },
        {
            "buffer": 0,
            "byteLength": 4560,
            "byteOffset": 639796,
            "target": 34963
        },
        {
            "buffer": 0,
            "byteLength": 5268,
            "byteOffset": 644356,
            "target": 34962
        },
        {
            "buffer": 0,
            "byteLength": 5268,
            "byteOffset": 649624,
            "target": 34962
        },
        {
            "buffer": 0,
            "byteLength": 3512,
            "byteOffset": 654892,
            "target": 34962
        },
        {
            "buffer": 0,
            "byteLength": 4560,
            "byteOffset": 658404,
            "target": 34963
        },
        {
            "buffer": 0,
            "byteLength": 5268,
            "byteOffset": 662964,
            "target": 34962
        },
        {
            "buffer": 0,
            "byteLength": 5268,
            "byteOffset": 668232,
            "target": 34962
        },
        {
            "buffer": 0,
            "byteLength": 3512,
            "byteOffset": 673500,
            "target": 34962
        }
    ],
    "scenes": [
        {
            "name": "Root Scene",
            "nodes": [
                0
            ]
        }
    ],
    "accessors": [
        {
            "componentType": 5126,
            "type": "SCALAR",
            "count": 1,
            "bufferView": 0,
            "byteOffset": 0,
            "min": [
                0.0
            ],
            "max": [
                0.0
            ]
        },
        {
            "componentType": 5126,
            "type": "VEC3",
            "count": 1,
            "bufferView": 1,
            "byteOffset": 0
        },
        {
            "componentType": 5126,
            "type": "VEC4",
            "count": 1,
            "bufferView": 2,
            "byteOffset": 0
        },
        {
            "componentType": 5126,
            "type": "VEC3",
            "count": 1,
            "bufferView": 3,
            "byteOffset": 0
        },
        {
            "componentType": 5126,
            "type": "VEC3",
            "count": 1,
            "bufferView": 4,
            "byteOffset": 0
        },
        {
            "componentType": 5126,
            "type": "VEC4",
            "count": 1,
            "bufferView": 5,
            "byteOffset": 0
        },
        {
            "componentType": 5126,
            "type": "VEC3",
            "count": 1,
            "bufferView": 6,
            "byteOffset": 0
        },
        {
            "componentType": 5126,
            "type": "VEC3",
            "count": 1,
            "bufferView": 7,
            "byteOffset": 0
        },
        {
            "componentType": 5126,
            "type": "VEC4",
            "count": 1,
            "bufferView": 8,
            "byteOffset": 0
        },
        {
            "componentType": 5126,
            "type": "VEC3",
            "count": 1,
            "bufferView": 9,
            "byteOffset": 0
        },
        {
            "componentType": 5126,
            "type": "SCALAR",
            "count": 1,
            "bufferView": 10,
            "byteOffset": 0
        },
        {
            "componentType": 5126,
            "type": "VEC3",
            "count": 1,
            "bufferView": 11,
            "byteOffset": 0
        },
        {
            "componentType": 5126,
            "type": "VEC4",
            "count": 1,
            "bufferView": 12,
            "byteOffset": 0
        },
        {
            "componentType": 5126,
            "type": "VEC3",
            "count": 1,
            "bufferView": 13,
            "byteOffset": 0
        },
        {
            "componentType": 5126,
            "type": "VEC3",
            "count": 1,
            "bufferView": 14,
            "byteOffset": 0
        },
        {
            "componentType": 5126,
            "type": "VEC4",
            "count": 1,
            "bufferView": 15,
            "byteOffset": 0
        },
        {
            "componentType": 5126,
            "type": "VEC3",
            "count": 1,
            "bufferView": 16,
            "byteOffset": 0
        },
        {
            "componentType": 5123,
            "type": "SCALAR",
            "count": 50238,
            "bufferView": 17,
            "byteOffset": 0
        },
        {
            "componentType": 5126,
            "type": "VEC3",
            "count": 9295,
            "bufferView": 18,
            "byteOffset": 0,
            "min": [
                -0.596572697162628,
                0.0687932297587395,
                -0.13769619166851
            ],
            "max": [
                0.596588551998138,
                1.74131608009338,
                0.180739402770996
            ]
        },
        {
            "componentType": 5126,
            "type": "VEC3",
            "count": 9295,
            "bufferView": 19,
            "byteOffset": 0
        },
        {
            "componentType": 5126,
            "type": "VEC2",
            "count": 9295,
            "bufferView": 20,
            "byteOffset": 0
        },
        {
            "componentType": 5126,
            "type": "VEC3",
            "count": 9295,
            "min": [
                -1.08941733837128,
                -1.64874875545502,
                -0.299025177955627
            ],
            "max": [
                0.764205634593964,
                1.62541496753693,
                0.287436336278915
            ],
            "sparse": {
                "count": 9295,
                "indices": {
                    "bufferView": 21,
                    "byteOffset": 0,
                    "componentType": 5123
                },
                "values": {
                    "bufferView": 22,
                    "byteOffset": 0
                }
            },
            "name": "blendShape1.Group2"
        },
        {
            "componentType": 5126,
            "type": "VEC3",
            "count": 9295,
            "sparse": {
                "count": 9295,
                "indices": {
                    "bufferView": 21,
                    "byteOffset": 0,
                    "componentType": 5123
                },
                "values": {
                    "bufferView": 23,
                    "byteOffset": 0
                }
            },
            "name": "blendShape1.Group2"
        },
        {
            "componentType": 5123,
            "type": "SCALAR",
            "count": 2280,
            "bufferView": 24,
            "byteOffset": 0
        },
        {
            "componentType": 5126,
            "type": "VEC3",
            "count": 439,
            "bufferView": 25,
            "byteOffset": 0,
            "min": [
                0.0229729078710079,
                1.50708246231079,
                0.0649764835834503
            ],
            "max": [
                0.0904088169336319,
                1.57451844215393,
                0.132412388920784
            ]
        },
        {
            "componentType": 5126,
            "type": "VEC3",
            "count": 439,
            "bufferView": 26,
            "byteOffset": 0
        },
        {
            "componentType": 5126,
            "type": "VEC2",
            "count": 439,
            "bufferView": 27,
            "byteOffset": 0
        },
        {
            "componentType": 5123,
            "type": "SCALAR",
            "count": 2280,
            "bufferView": 28,
            "byteOffset": 0
        },
        {
            "componentType": 5126,
            "type": "VEC3",
            "count": 439,
            "bufferView": 29,
            "byteOffset": 0,
            "min": [
                -0.0904088169336319,
                1.50708246231079,
                0.0649764835834503
            ],
            "max": [
                -0.0229729078710079,
                1.57451844215393,
                0.132412388920784
            ]
        },
        {
            "componentType": 5126,
            "type": "VEC3",
            "count": 439,
            "bufferView": 30,
            "byteOffset": 0
        },
        {
            "componentType": 5126,
            "type": "VEC2",
            "count": 439,
            "bufferView": 31,
            "byteOffset": 0
        }
    ],
    "samplers": [
        {}
    ],
    "materials": [
        {
            "name": "blinn2",
            "extras": {
                "fromFBX": {
                    "shadingModel": "Phong",
                    "isTruePBR": false
                }
            },
            "pbrMetallicRoughness": {
                "baseColorFactor": [
                    0.135064944624901,
                    0.135064944624901,
                    0.135064944624901,
                    1.0
                ],
                "metallicFactor": 0.0,
                "roughnessFactor": 0.800000011920929
            },
            "alphaMode": "OPAQUE"
        },
        {
            "name": "blinn3",
            "extras": {
                "fromFBX": {
                    "shadingModel": "Phong",
                    "isTruePBR": false
                }
            },
            "pbrMetallicRoughness": {
                "baseColorFactor": [
                    0.135064944624901,
                    0.135064944624901,
                    0.135064944624901,
                    1.0
                ],
                "metallicFactor": 0.0,
                "roughnessFactor": 0.800000011920929
            },
            "alphaMode": "OPAQUE"
        }
    ],
    "meshes": [
        {
            "name": "polySurface1",
            "primitives": [
                {
                    "material": 0,
                    "mode": 4,
                    "attributes": {
                        "NORMAL": 19,
                        "POSITION": 18,
                        "TEXCOORD_0": 20
                    },
                    "indices": 17,
                    "targets": [
                        {
                            "POSITION": 21,
                            "NORMAL": 22
                        }
                    ]
                }
            ],
            "weights": [
                0.0
            ],
            "extras": {
                "targetNames": [
                    "blendShape1.Group2"
                ]
            }
        },
        {
            "name": "male_eyeball_L",
            "primitives": [
                {
                    "material": 1,
                    "mode": 4,
                    "attributes": {
                        "NORMAL": 25,
                        "POSITION": 24,
                        "TEXCOORD_0": 26
                    },
                    "indices": 23
                }
            ]
        },
        {
            "name": "male_eyeball_R",
            "primitives": [
                {
                    "material": 1,
                    "mode": 4,
                    "attributes": {
                        "NORMAL": 29,
                        "POSITION": 28,
                        "TEXCOORD_0": 30
                    },
                    "indices": 27
                }
            ]
        }
    ],
    "animations": [
        {
            "name": "Take 001",
            "channels": [
                {
                    "sampler": 0,
                    "target": {
                        "node": 0,
                        "path": "translation"
                    }
                },
                {
                    "sampler": 1,
                    "target": {
                        "node": 0,
                        "path": "rotation"
                    }
                },
                {
                    "sampler": 2,
                    "target": {
                        "node": 0,
                        "path": "scale"
                    }
                },
                {
                    "sampler": 3,
                    "target": {
                        "node": 1,
                        "path": "translation"
                    }
                },
                {
                    "sampler": 4,
                    "target": {
                        "node": 1,
                        "path": "rotation"
                    }
                },
                {
                    "sampler": 5,
                    "target": {
                        "node": 1,
                        "path": "scale"
                    }
                },
                {
                    "sampler": 6,
                    "target": {
                        "node": 2,
                        "path": "translation"
                    }
                },
                {
                    "sampler": 7,
                    "target": {
                        "node": 2,
                        "path": "rotation"
                    }
                },
                {
                    "sampler": 8,
                    "target": {
                        "node": 2,
                        "path": "scale"
                    }
                },
                {
                    "sampler": 9,
                    "target": {
                        "node": 2,
                        "path": "weights"
                    }
                },
                {
                    "sampler": 10,
                    "target": {
                        "node": 3,
                        "path": "translation"
                    }
                },
                {
                    "sampler": 11,
                    "target": {
                        "node": 3,
                        "path": "rotation"
                    }
                },
                {
                    "sampler": 12,
                    "target": {
                        "node": 3,
                        "path": "scale"
                    }
                },
                {
                    "sampler": 13,
                    "target": {
                        "node": 4,
                        "path": "translation"
                    }
                },
                {
                    "sampler": 14,
                    "target": {
                        "node": 4,
                        "path": "rotation"
                    }
                },
                {
                    "sampler": 15,
                    "target": {
                        "node": 4,
                        "path": "scale"
                    }
                }
            ],
            "samplers": [
                {
                    "input": 0,
                    "interpolation": "LINEAR",
                    "output": 1
                },
                {
                    "input": 0,
                    "interpolation": "LINEAR",
                    "output": 2
                },
                {
                    "input": 0,
                    "interpolation": "LINEAR",
                    "output": 3
                },
                {
                    "input": 0,
                    "interpolation": "LINEAR",
                    "output": 4
                },
                {
                    "input": 0,
                    "interpolation": "LINEAR",
                    "output": 5
                },
                {
                    "input": 0,
                    "interpolation": "LINEAR",
                    "output": 6
                },
                {
                    "input": 0,
                    "interpolation": "LINEAR",
                    "output": 7
                },
                {
                    "input": 0,
                    "interpolation": "LINEAR",
                    "output": 8
                },
                {
                    "input": 0,
                    "interpolation": "LINEAR",
                    "output": 9
                },
                {
                    "input": 0,
                    "interpolation": "LINEAR",
                    "output": 10
                },
                {
                    "input": 0,
                    "interpolation": "LINEAR",
                    "output": 11
                },
                {
                    "input": 0,
                    "interpolation": "LINEAR",
                    "output": 12
                },
                {
                    "input": 0,
                    "interpolation": "LINEAR",
                    "output": 13
                },
                {
                    "input": 0,
                    "interpolation": "LINEAR",
                    "output": 14
                },
                {
                    "input": 0,
                    "interpolation": "LINEAR",
                    "output": 15
                },
                {
                    "input": 0,
                    "interpolation": "LINEAR",
                    "output": 16
                }
            ]
        }
    ],
    "nodes": [
        {
            "name": "RootNode",
            "translation": [
                0.0,
                0.0,
                0.0
            ],
            "rotation": [
                0.0,
                0.0,
                0.0,
                1.0
            ],
            "scale": [
                1.0,
                1.0,
                1.0
            ],
            "children": [
                1,
                3,
                4
            ]
        },
        {
            "name": "male_low:Group2",
            "translation": [
                0.0,
                0.0,
                0.0
            ],
            "rotation": [
                0.0,
                0.0,
                0.0,
                1.0
            ],
            "scale": [
                1.0,
                1.0,
                1.0
            ],
            "children": [
                2
            ]
        },
        {
            "name": "polySurface1",
            "translation": [
                0.0,
                0.0,
                0.0
            ],
            "rotation": [
                0.0,
                0.0,
                0.0,
                1.0
            ],
            "scale": [
                1.0,
                1.0,
                1.0
            ],
            "mesh": 0
        },
        {
            "name": "male_eyeball_L",
            "translation": [
                0.0,
                0.0,
                0.0
            ],
            "rotation": [
                0.0,
                0.0,
                0.0,
                1.0
            ],
            "scale": [
                1.0,
                1.0,
                1.0
            ],
            "mesh": 1
        },
        {
            "name": "male_eyeball_R",
            "translation": [
                0.0,
                0.0,
                0.0
            ],
            "rotation": [
                0.0,
                0.0,
                0.0,
                1.0
            ],
            "scale": [
                1.0,
                1.0,
                1.0
            ],
            "mesh": 2
        }
    ]
}