{
    "asset": {
        "generator": "FBX2glTF v0.9.7",
        "version": "2.0"
    },
    "scene": 0,
    "buffers": [
        {
            "byteLength": 435680,
            "uri": "buffer.bin"
        }
    ],
    "bufferViews": [
        {
            "buffer": 0,
            "byteLength": 4,
            "byteOffset": 0
        },
        {
            "buffer": 0,
            "byteLength": 12,
            "byteOffset": 4
        },
        {
            "buffer": 0,
            "byteLength": 16,
            "byteOffset": 16
        },
        {
            "buffer": 0,
            "byteLength": 12,
            "byteOffset": 32
        },
        {
            "buffer": 0,
            "byteLength": 12,
            "byteOffset": 44
        },
        {
            "buffer": 0,
            "byteLength": 16,
            "byteOffset": 56
        },
        {
            "buffer": 0,
            "byteLength": 12,
            "byteOffset": 72
        },
        {
            "buffer": 0,
            "byteLength": 12,
            "byteOffset": 84
        },
        {
            "buffer": 0,
            "byteLength": 16,
            "byteOffset": 96
        },
        {
            "buffer": 0,
            "byteLength": 12,
            "byteOffset": 112
        },
        {
            "buffer": 0,
            "byteLength": 12,
            "byteOffset": 124
        },
        {
            "buffer": 0,
            "byteLength": 16,
            "byteOffset": 136
        },
        {
            "buffer": 0,
            "byteLength": 12,
            "byteOffset": 152
        },
        {
            "buffer": 0,
            "byteLength": 100476,
            "byteOffset": 164,
            "target": 34963
        },
        {
            "buffer": 0,
            "byteLength": 111684,
            "byteOffset": 100640,
            "target": 34962
        },
        {
            "buffer": 0,
            "byteLength": 111684,
            "byteOffset": 212324,
            "target": 34962
        },
        {
            "buffer": 0,
            "byteLength": 74456,
            "byteOffset": 324008,
            "target": 34962
        },
        {
            "buffer": 0,
            "byteLength": 4560,
            "byteOffset": 398464,
            "target": 34963
        },
        {
            "buffer": 0,
            "byteLength": 5268,
            "byteOffset": 403024,
            "target": 34962
        },
        {
            "buffer": 0,
            "byteLength": 5268,
            "byteOffset": 408292,
            "target": 34962
        },
        {
            "buffer": 0,
            "byteLength": 3512,
            "byteOffset": 413560,
            "target": 34962
        },
        {
            "buffer": 0,
            "byteLength": 4560,
            "byteOffset": 417072,
            "target": 34963
        },
        {
            "buffer": 0,
            "byteLength": 5268,
            "byteOffset": 421632,
            "target": 34962
        },
        {
            "buffer": 0,
            "byteLength": 5268,
            "byteOffset": 426900,
            "target": 34962
        },
        {
            "buffer": 0,
            "byteLength": 3512,
            "byteOffset": 432168,
            "target": 34962
        }
    ],
    "scenes": [
        {
            "name": "Root Scene",
            "nodes": [
                0
            ]
        }
    ],
    "accessors": [
        {
            "componentType": 5126,
            "type": "SCALAR",
            "count": 1,
            "bufferView": 0,
            "byteOffset": 0,
            "min": [
                0.0
            ],
            "max": [
                0.0
            ]
        },
        {
            "componentType": 5126,
            "type": "VEC3",
            "count": 1,
            "bufferView": 1,
            "byteOffset": 0
        },
        {
            "componentType": 5126,
            "type": "VEC4",
            "count": 1,
            "bufferView": 2,
            "byteOffset": 0
        },
        {
            "componentType": 5126,
            "type": "VEC3",
            "count": 1,
            "bufferView": 3,
            "byteOffset": 0
        },
        {
            "componentType": 5126,
            "type": "VEC3",
            "count": 1,
            "bufferView": 4,
            "byteOffset": 0
        },
        {
            "componentType": 5126,
            "type": "VEC4",
            "count": 1,
            "bufferView": 5,
            "byteOffset": 0
        },
        {
            "componentType": 5126,
            "type": "VEC3",
            "count": 1,
            "bufferView": 6,
            "byteOffset": 0
        },
        {
            "componentType": 5126,
            "type": "VEC3",
            "count": 1,
            "bufferView": 7,
            "byteOffset": 0
        },
        {
            "componentType": 5126,
            "type": "VEC4",
            "count": 1,
            "bufferView": 8,
            "byteOffset": 0
        },
        {
            "componentType": 5126,
            "type": "VEC3",
            "count": 1,
            "bufferView": 9,
            "byteOffset": 0
        },
        {
            "componentType": 5126,
            "type": "VEC3",
            "count": 1,
            "bufferView": 10,
            "byteOffset": 0
        },
        {
            "componentType": 5126,
            "type": "VEC4",
            "count": 1,
            "bufferView": 11,
            "byteOffset": 0
        },
        {
            "componentType": 5126,
            "type": "VEC3",
            "count": 1,
            "bufferView": 12,
            "byteOffset": 0
        },
        {
            "componentType": 5123,
            "type": "SCALAR",
            "count": 50238,
            "bufferView": 13,
            "byteOffset": 0
        },
        {
            "componentType": 5126,
            "type": "VEC3",
            "count": 9307,
            "bufferView": 14,
            "byteOffset": 0,
            "min": [
                -0.572897791862488,
                0.0677335411310196,
                -0.162205904722214
            ],
            "max": [
                0.572897791862488,
                1.70671916007996,
                0.167819231748581
            ]
        },
        {
            "componentType": 5126,
            "type": "VEC3",
            "count": 9307,
            "bufferView": 15,
            "byteOffset": 0
        },
        {
            "componentType": 5126,
            "type": "VEC2",
            "count": 9307,
            "bufferView": 16,
            "byteOffset": 0
        },
        {
            "componentType": 5123,
            "type": "SCALAR",
            "count": 2280,
            "bufferView": 17,
            "byteOffset": 0
        },
        {
            "componentType": 5126,
            "type": "VEC3",
            "count": 439,
            "bufferView": 18,
            "byteOffset": 0,
            "min": [
                0.00859645660966635,
                1.44794309139252,
                0.0394604280591011
            ],
            "max": [
                0.0964836850762367,
                1.53589081764221,
                0.127347633242607
            ]
        },
        {
            "componentType": 5126,
            "type": "VEC3",
            "count": 439,
            "bufferView": 19,
            "byteOffset": 0
        },
        {
            "componentType": 5126,
            "type": "VEC2",
            "count": 439,
            "bufferView": 20,
            "byteOffset": 0
        },
        {
            "componentType": 5123,
            "type": "SCALAR",
            "count": 2280,
            "bufferView": 21,
            "byteOffset": 0
        },
        {
            "componentType": 5126,
            "type": "VEC3",
            "count": 439,
            "bufferView": 22,
            "byteOffset": 0,
            "min": [
                -0.0965094342827797,
                1.44794309139252,
                0.0394346788525581
            ],
            "max": [
                -0.0085707101970911,
                1.53589081764221,
                0.12737338244915
            ]
        },
        {
            "componentType": 5126,
            "type": "VEC3",
            "count": 439,
            "bufferView": 23,
            "byteOffset": 0
        },
        {
            "componentType": 5126,
            "type": "VEC2",
            "count": 439,
            "bufferView": 24,
            "byteOffset": 0
        }
    ],
    "samplers": [
        {}
    ],
    "materials": [
        {
            "name": "blinn2",
            "extras": {
                "fromFBX": {
                    "shadingModel": "Phong",
                    "isTruePBR": false
                }
            },
            "pbrMetallicRoughness": {
                "baseColorFactor": [
                    0.135064944624901,
                    0.135064944624901,
                    0.135064944624901,
                    1.0
                ],
                "metallicFactor": 0.0,
                "roughnessFactor": 0.800000011920929
            },
            "alphaMode": "OPAQUE"
        },
        {
            "name": "blinn3",
            "extras": {
                "fromFBX": {
                    "shadingModel": "Phong",
                    "isTruePBR": false
                }
            },
            "pbrMetallicRoughness": {
                "baseColorFactor": [
                    0.135064944624901,
                    0.135064944624901,
                    0.135064944624901,
                    1.0
                ],
                "metallicFactor": 0.0,
                "roughnessFactor": 0.800000011920929
            },
            "alphaMode": "OPAQUE"
        }
    ],
    "meshes": [
        {
            "name": "female_low_maya1:Group2",
            "primitives": [
                {
                    "material": 0,
                    "mode": 4,
                    "attributes": {
                        "NORMAL": 15,
                        "POSITION": 14,
                        "TEXCOORD_0": 16
                    },
                    "indices": 13
                }
            ]
        },
        {
            "name": "female_eyeball_L",
            "primitives": [
                {
                    "material": 1,
                    "mode": 4,
                    "attributes": {
                        "NORMAL": 19,
                        "POSITION": 18,
                        "TEXCOORD_0": 20
                    },
                    "indices": 17
                }
            ]
        },
        {
            "name": "female_eyeball_R",
            "primitives": [
                {
                    "material": 1,
                    "mode": 4,
                    "attributes": {
                        "NORMAL": 23,
                        "POSITION": 22,
                        "TEXCOORD_0": 24
                    },
                    "indices": 21
                }
            ]
        }
    ],
    "animations": [
        {
            "name": "Take 001",
            "channels": [
                {
                    "sampler": 0,
                    "target": {
                        "node": 0,
                        "path": "translation"
                    }
                },
                {
                    "sampler": 1,
                    "target": {
                        "node": 0,
                        "path": "rotation"
                    }
                },
                {
                    "sampler": 2,
                    "target": {
                        "node": 0,
                        "path": "scale"
                    }
                },
                {
                    "sampler": 3,
                    "target": {
                        "node": 1,
                        "path": "translation"
                    }
                },
                {
                    "sampler": 4,
                    "target": {
                        "node": 1,
                        "path": "rotation"
                    }
                },
                {
                    "sampler": 5,
                    "target": {
                        "node": 1,
                        "path": "scale"
                    }
                },
                {
                    "sampler": 6,
                    "target": {
                        "node": 2,
                        "path": "translation"
                    }
                },
                {
                    "sampler": 7,
                    "target": {
                        "node": 2,
                        "path": "rotation"
                    }
                },
                {
                    "sampler": 8,
                    "target": {
                        "node": 2,
                        "path": "scale"
                    }
                },
                {
                    "sampler": 9,
                    "target": {
                        "node": 3,
                        "path": "translation"
                    }
                },
                {
                    "sampler": 10,
                    "target": {
                        "node": 3,
                        "path": "rotation"
                    }
                },
                {
                    "sampler": 11,
                    "target": {
                        "node": 3,
                        "path": "scale"
                    }
                }
            ],
            "samplers": [
                {
                    "input": 0,
                    "interpolation": "LINEAR",
                    "output": 1
                },
                {
                    "input": 0,
                    "interpolation": "LINEAR",
                    "output": 2
                },
                {
                    "input": 0,
                    "interpolation": "LINEAR",
                    "output": 3
                },
                {
                    "input": 0,
                    "interpolation": "LINEAR",
                    "output": 4
                },
                {
                    "input": 0,
                    "interpolation": "LINEAR",
                    "output": 5
                },
                {
                    "input": 0,
                    "interpolation": "LINEAR",
                    "output": 6
                },
                {
                    "input": 0,
                    "interpolation": "LINEAR",
                    "output": 7
                },
                {
                    "input": 0,
                    "interpolation": "LINEAR",
                    "output": 8
                },
                {
                    "input": 0,
                    "interpolation": "LINEAR",
                    "output": 9
                },
                {
                    "input": 0,
                    "interpolation": "LINEAR",
                    "output": 10
                },
                {
                    "input": 0,
                    "interpolation": "LINEAR",
                    "output": 11
                },
                {
                    "input": 0,
                    "interpolation": "LINEAR",
                    "output": 12
                }
            ]
        }
    ],
    "nodes": [
        {
            "name": "RootNode",
            "translation": [
                0.0,
                0.0,
                0.0
            ],
            "rotation": [
                0.0,
                0.0,
                0.0,
                1.0
            ],
            "scale": [
                1.0,
                1.0,
                1.0
            ],
            "children": [
                1,
                2,
                3
            ]
        },
        {
            "name": "female_low_maya1:Group2",
            "translation": [
                0.0,
                0.0,
                0.0
            ],
            "rotation": [
                0.0,
                0.0,
                0.0,
                1.0
            ],
            "scale": [
                1.0,
                1.0,
                1.0
            ],
            "mesh": 0
        },
        {
            "name": "female_eyeball_L",
            "translation": [
                0.0,
                0.0,
                0.0
            ],
            "rotation": [
                0.0,
                0.0,
                0.0,
                1.0
            ],
            "scale": [
                1.0,
                1.0,
                1.0
            ],
            "mesh": 1
        },
        {
            "name": "female_eyeball_R",
            "translation": [
                0.0,
                0.0,
                0.0
            ],
            "rotation": [
                0.0,
                0.0,
                0.0,
                1.0
            ],
            "scale": [
                1.0,
                1.0,
                1.0
            ],
            "mesh": 2
        }
    ]
}